<svg data-v-0dd9719b="" version="1.0" xmlns="http://www.w3.org/2000/svg" xmlns:xlink="http://www.w3.org/1999/xlink" width="100%" height="100%" viewBox="0 0 340.000000 250.000000" preserveAspectRatio="xMidYMid meet" color-interpolation-filters="sRGB" style="margin: auto;"> <rect data-v-0dd9719b="" x="0" y="0" width="100%" height="100%" fill="#fff" fill-opacity="0" class="background"></rect> <!----> <g data-v-0dd9719b="" fill="#f7ad0b" class="icon-text-wrapper icon-svg-group iconsvg" transform="translate(47.302711486816406,94.57125854492188)"><g class="iconsvg-imagesvg" transform="translate(0,0)"><g><rect fill="#f7ad0b" fill-opacity="0" stroke-width="2" x="0" y="0" width="60" height="60.85748192025642" class="image-rect"></rect> <svg x="0" y="0" width="60" height="60.85748192025642" filtersec="colorsb46534018" class="image-svg-svg primary" style="overflow: visible;"><svg xmlns="http://www.w3.org/2000/svg" viewBox="3 0.42000001668930054 492.5400085449219 499.5799865722656"><path fill="#097EC6" d="M19.02 338.42c-2.13-5.64-4.05-11.36-5.76-17.14C6.45 298.3 3 274.39 3 250.22c0-24.5 3.54-48.7 10.52-71.94 1.68-5.6 3.56-11.14 5.63-16.61a77.635 77.635 0 0 0 6.88 18.25c13.58 25.84 40.18 41.91 69.42 41.91 7.47 0 14.85-1.06 21.93-3.12-2.25 10.04-3.38 20.33-3.38 30.77 0 10.65 1.18 21.14 3.51 31.35a78.632 78.632 0 0 0-22.06-3.15c-29.24 0-55.84 16.07-69.43 41.93a77.737 77.737 0 0 0-7 18.81z"></path><path fill="#F7AD0B" d="M95.45 203.58c-22.43 0-42.85-12.33-53.27-32.17-4.61-8.7-6.94-18.13-6.94-28.04 0-8.86 1.88-17.38 5.59-25.35 3.49-5.63 7.26-11.16 11.21-16.45 32.19-43.44 78.31-75.72 129.88-90.94C204.81 3.85 228.65.42 252.78.42c54.81 0 106.82 17.4 150.42 50.33 18.4 13.9 34.78 30.35 48.66 48.66-34.51-28.65-78.29-44.83-124.38-44.83-13.85 0-27.7 1.47-41.18 4.35-59.96 12.91-110.92 54.03-136.35 110.01-.12.24-.23.5-.35.77-.18.38-.46.92-.76 1.45l-.12.22c-10.44 19.87-30.86 32.2-53.27 32.2z"></path><path fill="#F78803" d="M495.54 187.5c0 38.18-30.97 69.15-69.15 69.15-32.09 0-59.06-21.84-66.89-51.44h-.21c-1.74-10.05-4.1-19.93-7.04-29.57-.62-1.98-1.26-4-1.91-6.02h.03c-.07-.14-.1-.27-.17-.41-7.72-23.62-18.8-45.73-32.64-65.83a267.08 267.08 0 0 0-7.45-10.32c-2.8-3.66-5.67-7.25-8.65-10.73a259.61 259.61 0 0 0-5.16-5.91c-.51-.58-1.06-1.16-1.61-1.71 10.8-2.02 21.77-3.01 32.78-3.01 41.36 0 108.68 24.19 137.88 53.39 16.21 16.21 27.02 38.02 29.16 50.55.66 3.86 1.03 7.82 1.03 11.86z"></path><path fill="#691391" d="M252.78 500c-23.63 0-47.04-3.3-69.56-9.82C129.77 474.72 82.6 441.35 50 396.05c0 0-2.34-3.31-2.4-3.39l-1.1-1.58a161.58 161.58 0 0 1-3.02-4.52c-5.4-9.16-8.25-19.67-8.25-30.41 0-9.91 2.33-19.34 6.92-28.01 10.44-19.87 30.85-32.2 53.29-32.2 22.41 0 42.83 12.33 53.27 32.18l2.57 4.88h.07c26.17 55.19 76.91 95.16 136.85 107.44 12.87 2.62 26.08 3.95 39.27 3.95 47.67 0 92.57-17.37 127.28-47.28-14.38 19.76-31.65 37.47-51.21 52.3C359.88 482.5 307.74 500 252.78 500z"></path><circle fill="#097EC6" cx="278.02" cy="249.32" r="105.55"></circle></svg></svg> <!----></g></g> <g transform="translate(67,21.973739624023438)"><g data-gra="path-name" fill-rule="" class="tp-name iconsvg-namesvg"><g transform="scale(1)"><g><path d="M14.28-4.79C14.28-5.38 14.08-5.63 13.54-5.63L11.13-5.63C10.59-5.63 10.54-5.23 10.47-4.74 10.27-3.56 9.21-3.07 7.89-3.07 6.27-3.07 5.16-3.96 5.16-5.53L5.16-10.64C5.16-12.19 6.27-13.1 7.89-13.1 9.21-13.1 9.9-12.73 10.42-11.92 10.61-11.62 10.64-11.15 11.15-11.15L13.51-11.15C14.08-11.15 14.28-11.28 14.28-11.87 13.96-14.99 10.93-16.54 7.89-16.54 4.96-16.54 1.3-14.84 1.3-10.98L1.3-5.18C1.3-1.33 4.96 0.37 7.89 0.37 10.93 0.37 14.28-1.62 14.28-4.79ZM30.05-10.98C30.05-14.86 26.36-16.54 23.44-16.54 20.52-16.54 16.88-14.86 16.88-10.98L16.88-5.18C16.88-1.3 20.52 0.37 23.44 0.37 26.36 0.37 30.05-1.3 30.05-5.18ZM26.19-5.53C26.19-3.96 25.06-3.05 23.44-3.05 21.84-3.05 20.71-3.96 20.71-5.53L20.71-10.64C20.71-12.21 21.84-13.12 23.44-13.12 25.06-13.12 26.19-12.21 26.19-10.64ZM45.6-16.17L43.24-16.17C42.8-16.17 42.53-16.02 42.53-15.45L42.53-6.93 37.32-15.33C37-15.82 36.83-16.17 36.22-16.17L33.91-16.17C33.34-16.17 33.19-15.9 33.19-15.45L33.19-0.71C33.19-0.15 33.46 0 33.91 0L36.34 0C36.78 0 37.05-0.15 37.05-0.71L37.05-9.26 42.26-0.84C42.58-0.34 42.75 0 43.37 0L45.6 0C46.17 0 46.31-0.27 46.31-0.71L46.31-15.45C46.31-16.02 46.04-16.17 45.6-16.17ZM62.36-16.17L60-16.17C59.56-16.17 59.29-16.02 59.29-15.45L59.29-6.93 54.08-15.33C53.76-15.82 53.59-16.17 52.97-16.17L50.66-16.17C50.1-16.17 49.95-15.9 49.95-15.45L49.95-0.71C49.95-0.15 50.22 0 50.66 0L53.1 0C53.54 0 53.81-0.15 53.81-0.71L53.81-9.26 59.02-0.84C59.34-0.34 59.51 0 60.12 0L62.36 0C62.92 0 63.07-0.27 63.07-0.71L63.07-15.45C63.07-16.02 62.8-16.17 62.36-16.17ZM78.43-3.44L70.59-3.44 70.59-6.68 77.17-6.68C77.74-6.68 77.89-6.95 77.89-7.4L77.89-9.31C77.89-9.75 77.74-10.02 77.17-10.02L70.59-10.02 70.59-12.7 78.01-12.7C78.57-12.7 78.72-12.97 78.72-13.42L78.72-15.45C78.72-15.9 78.57-16.17 78.01-16.17L67.42-16.17C66.86-16.17 66.71-15.9 66.71-15.45L66.71-0.71C66.71-0.27 66.86 0 67.42 0L78.43 0C78.99 0 79.14-0.27 79.14-0.71L79.14-2.73C79.14-3.17 78.99-3.44 78.43-3.44ZM94.57-4.79C94.57-5.38 94.37-5.63 93.83-5.63L91.43-5.63C90.88-5.63 90.84-5.23 90.76-4.74 90.57-3.56 89.51-3.07 88.18-3.07 86.56-3.07 85.45-3.96 85.45-5.53L85.45-10.64C85.45-12.19 86.56-13.1 88.18-13.1 89.51-13.1 90.2-12.73 90.71-11.92 90.91-11.62 90.93-11.15 91.45-11.15L93.81-11.15C94.37-11.15 94.57-11.28 94.57-11.87 94.25-14.99 91.23-16.54 88.18-16.54 85.26-16.54 81.6-14.84 81.6-10.98L81.6-5.18C81.6-1.33 85.26 0.37 88.18 0.37 91.23 0.37 94.57-1.62 94.57-4.79ZM108.57-16.17L97.17-16.17C96.61-16.17 96.46-15.9 96.46-15.45L96.46-13.42C96.46-12.97 96.61-12.7 97.17-12.7L100.96-12.7 100.96-0.71C100.96-0.15 101.23 0 101.67 0L104.1 0C104.55 0 104.82-0.15 104.82-0.71L104.82-12.7 108.57-12.7C109.14-12.7 109.29-12.97 109.29-13.42L109.29-15.45C109.29-15.9 109.14-16.17 108.57-16.17ZM124.64-16.17L122.04-16.17C121.38-16.17 121.2-15.97 121.01-15.38L117.69-5.21 114.35-15.38C114.15-15.97 113.98-16.17 113.34-16.17L110.61-16.17C110.15-16.17 110.05-15.77 110.17-15.45L115.45-0.74C115.75-0.1 115.92 0 116.46 0L118.82 0C119.36 0 119.53-0.1 119.83-0.74L125.09-15.45C125.21-15.77 125.11-16.17 124.64-16.17ZM134.4-3.37L132.85-3.37 132.85-12.75 134.32-12.75C134.89-12.75 135.04-13.02 135.04-13.46L135.04-15.45C135.04-15.9 134.89-16.17 134.32-16.17L127.49-16.17C126.93-16.17 126.78-15.9 126.78-15.45L126.78-13.46C126.78-13.02 126.93-12.75 127.49-12.75L128.99-12.75 128.99-3.37 127.44-3.37C126.88-3.37 126.73-3.1 126.73-2.65L126.73-0.71C126.73-0.27 126.88 0 127.44 0L134.4 0C134.96 0 135.11-0.27 135.11-0.71L135.11-2.65C135.11-3.1 134.96-3.37 134.4-3.37ZM145.9-9.39C144.91-9.78 141.3-10.32 141.3-11.82 141.3-12.92 142.65-13.24 143.46-13.24 144.2-13.24 145.09-13.02 145.55-12.58 145.85-12.29 145.97-12.09 146.07-11.84 146.19-11.52 146.27-11.18 146.73-11.18L149.14-11.18C149.71-11.18 149.85-11.28 149.85-11.87 149.85-15.11 146.44-16.54 143.32-16.54 140.25-16.41 137.35-14.84 137.35-11.65 137.35-8.53 139.63-7.54 142.11-6.76 144.2-6.09 146.39-6.07 146.39-4.69 146.39-3.32 145.31-3.02 143.98-3.02 143.07-3.02 142.06-3.24 141.57-3.83 141.25-4.2 141.13-4.52 141.11-4.84 141.06-5.45 140.79-5.53 140.22-5.53L137.84-5.53C137.27-5.53 137.13-5.41 137.13-4.84 137.13-1.4 140.66 0.37 143.73 0.37 147.52 0.37 150.27-1.3 150.27-4.79 150.27-8.13 147.67-8.85 145.9-9.39ZM164.08-16.17L152.68-16.17C152.11-16.17 151.97-15.9 151.97-15.45L151.97-13.42C151.97-12.97 152.11-12.7 152.68-12.7L156.46-12.7 156.46-0.71C156.46-0.15 156.73 0 157.17 0L159.61 0C160.05 0 160.32-0.15 160.32-0.71L160.32-12.7 164.08-12.7C164.64-12.7 164.79-12.97 164.79-13.42L164.79-15.45C164.79-15.9 164.64-16.17 164.08-16.17ZM179.63-0.69L174.2-15.41C173.98-15.92 173.73-16.17 173.19-16.17L170.84-16.17C170.29-16.17 170.02-15.92 169.83-15.41L164.37-0.69C164.25-0.39 164.25 0 164.79 0L167.37 0C167.91 0 168.11-0.15 168.3-0.74L168.99-2.68 175.01-2.68 175.7-0.74C175.9-0.15 176.09 0 176.63 0L179.21 0C179.75 0 179.75-0.39 179.63-0.69ZM170.17-6.12L172.01-11.55 173.86-6.12Z" transform="translate(-1.2999999523162842, 16.540000915527344)"></path></g> <!----> <!----> <!----> <!----> <!----> <!----> <!----></g></g> <!----></g></g><defs v-gra="od"></defs></svg>